# xmcd CD database file
#
# Track frame offsets:
#	150
#	15944
#	27476
#	45031
#	61588
#	74797
#	89165
#	101989
#	115323
#	128464
#	143711
#	159025
#
# Disc length: 2350 seconds
#
# Revision: 0
# Processed by: cddbd v1.5.2PL0 Copyright (c) Steve Scherf et al.
# Submitted via: CDex 1.70beta2
#
DISCID=95092c0c
DTITLE=Truck Stop - Zuhause
DYEAR=1977
DGENRE=Country
TTITLE0=Ich möcht so gern Dave Dudley hör'n
TTITLE1=Bleifuß Joe
TTITLE2=Meine Tür steht immer offen
TTITLE3=Hey, Kleiner
TTITLE4=Cowboy bei der Bahn
TTITLE5=Studio Nr. 9
TTITLE6=Die Frau mit dem Gurt
TTITLE7=Das Mädchen wird schöner mit jedem Glas Bier
TTITLE8=Alt und nur im Weg
TTITLE9=Henry's Farm
TTITLE10=Schuldlos im U.G.
TTITLE11=Die Zockerhöhle
EXTD=YEAR: 1977
EXTT0=
EXTT1=
EXTT2=
EXTT3=
EXTT4=
EXTT5=
EXTT6=
EXTT7=
EXTT8=
EXTT9=
EXTT10=
EXTT11=
PLAYORDER=
